<svg width="41" height="32" viewBox="0 0 41 32" fill="none" xmlns="http://www.w3.org/2000/svg">
<path fill-rule="evenodd" clip-rule="evenodd" d="M16.6536 3.07382C17.9448 1.71973 19.742 0.881197 21.7273 0.881197C24.3745 0.881197 26.6687 2.3627 27.9041 4.57013C29.0006 4.07631 30.1883 3.82136 31.3895 3.82198C36.1544 3.82198 40.0222 7.74795 40.0222 12.5925C40.0222 17.437 36.1544 21.3629 31.3895 21.3629C30.8071 21.3629 30.2394 21.304 29.6835 21.1926C28.6026 23.1333 26.5364 24.4519 24.1833 24.4519C23.2253 24.4538 22.2796 24.2349 21.4185 23.8119C20.3229 26.4045 17.7713 28.2267 14.8006 28.2267C11.6975 28.2267 9.06507 26.2563 8.05032 23.4859C7.59868 23.582 7.13833 23.6302 6.67674 23.6299C2.98541 23.6299 0 20.578 0 16.8298C0 14.3113 1.34417 12.1187 3.33837 10.9335C2.9153 9.95168 2.69753 8.89263 2.69864 7.82232C2.69864 3.49634 6.18407 0 10.4784 0C12.9932 0 15.2433 1.20742 16.6551 3.08152" fill="#00A1E0"/>
<path d="M14.1708 21.3857C14.4101 21.3857 14.6041 21.1917 14.6041 20.9524C14.6041 20.713 14.4101 20.519 14.1708 20.519C13.9314 20.519 13.7374 20.713 13.7374 20.9524C13.7374 21.1917 13.9314 21.3857 14.1708 21.3857Z" fill="url(#paint0_linear_4_1791)"/>
<path d="M4.59265 29.8523V18.0743L18.9632 19.741L5.80029 30.4274C5.31615 30.8204 4.59265 30.4759 4.59265 29.8523Z" fill="#00A1E0"/>
<path d="M16.9157 16.5538V16.3548C16.9196 15.6718 16.9801 15.1274 17.0972 14.7215C17.2182 14.3156 17.3938 13.9878 17.6241 13.738C17.8543 13.4882 18.1314 13.2619 18.4554 13.0589C18.6973 12.9028 18.9139 12.7408 19.1052 12.573C19.2964 12.4052 19.4486 12.2198 19.5618 12.0169C19.675 11.81 19.7315 11.5798 19.7315 11.3261C19.7315 11.0568 19.6671 10.8207 19.5384 10.6178C19.4096 10.4148 19.2359 10.2587 19.0173 10.1494C18.8027 10.0402 18.5646 9.98553 18.3032 9.98553C18.0495 9.98553 17.8095 10.0421 17.5831 10.1553C17.3567 10.2646 17.1714 10.4285 17.027 10.647C16.8826 10.8617 16.8045 11.129 16.7928 11.449H14.4043C14.4239 10.6685 14.6112 10.0246 14.9663 9.5172C15.3215 9.00595 15.7918 8.62543 16.3772 8.37566C16.9626 8.12198 17.6085 7.99514 18.3149 7.99514C19.0915 7.99514 19.7784 8.12393 20.3755 8.38151C20.9726 8.63519 21.4409 9.00399 21.7805 9.48793C22.12 9.97187 22.2898 10.5553 22.2898 11.2383C22.2898 11.6949 22.2137 12.1008 22.0615 12.4559C21.9132 12.8072 21.7044 13.1194 21.4351 13.3926C21.1658 13.6619 20.8477 13.9058 20.4809 14.1244C20.1726 14.3078 19.9189 14.499 19.7198 14.6981C19.5247 14.8971 19.3783 15.1274 19.2808 15.3888C19.1871 15.6503 19.1383 15.9723 19.1344 16.3548V16.5538H16.9157ZM18.0748 20.3004C17.6846 20.3004 17.3509 20.1638 17.0738 19.8906C16.8006 19.6135 16.666 19.2818 16.6699 18.8954C16.666 18.513 16.8006 18.1851 17.0738 17.9119C17.3509 17.6387 17.6846 17.5022 18.0748 17.5022C18.4456 17.5022 18.7715 17.6387 19.0525 17.9119C19.3335 18.1851 19.4759 18.513 19.4798 18.8954C19.4759 19.153 19.4076 19.3891 19.2749 19.6038C19.1461 19.8145 18.9764 19.9843 18.7656 20.1131C18.5549 20.238 18.3246 20.3004 18.0748 20.3004Z" fill="white"/>
<defs>
<linearGradient id="paint0_linear_4_1791" x1="10.2624" y1="17.044" x2="15.392" y2="22.1735" gradientUnits="userSpaceOnUse">
<stop stop-color="white"/>
<stop offset="1" stop-color="#DADFE0"/>
</linearGradient>
</defs>
</svg>
